<svg width="16" height="16" viewBox="0 0 16 16" fill="none" xmlns="http://www.w3.org/2000/svg">
<path d="M4.673 12.2L2 14.3V3.20001C2 3.04088 2.06321 2.88826 2.17574 2.77574C2.28826 2.66322 2.44087 2.60001 2.6 2.60001H13.4C13.5591 2.60001 13.7117 2.66322 13.8243 2.77574C13.9368 2.88826 14 3.04088 14 3.20001V11.6C14 11.7591 13.9368 11.9117 13.8243 12.0243C13.7117 12.1368 13.5591 12.2 13.4 12.2H4.673ZM7.5758 8.07261L6.0908 6.58761L5.2424 7.43661L7.5758 9.77001L10.97 6.37581L10.1216 5.52741L7.5758 8.07261V8.07261Z" fill="#A4A4A4"/>
</svg>
