<svg width="84" height="20" viewBox="0 0 84 20" fill="none" xmlns="http://www.w3.org/2000/svg">
<path d="M10.0026 16.6666C13.6497 16.6666 16.6693 13.6404 16.6693 9.99992C16.6693 6.35286 13.6431 3.33325 9.99607 3.33325C6.35555 3.33325 3.33594 6.35286 3.33594 9.99992C3.33594 13.6404 6.36208 16.6666 10.0026 16.6666ZM10.0026 15.5555C6.91764 15.5555 4.45358 13.0849 4.45358 9.99992C4.45358 6.91495 6.9111 4.44436 9.99607 4.44436C13.081 4.44436 15.5516 6.91495 15.5582 9.99992C15.5647 13.0849 13.0876 15.5555 10.0026 15.5555ZM10.0026 6.67312C9.72156 6.67312 9.51241 6.87574 9.51241 7.16332V10.4313L9.5647 11.8104L8.9111 11.0261L8.13332 10.2417C8.04182 10.1568 7.92417 10.098 7.78692 10.098C7.51894 10.098 7.31633 10.3071 7.31633 10.5685C7.31633 10.7058 7.35555 10.8234 7.44051 10.9084L9.62352 13.0849C9.75424 13.2156 9.86535 13.2679 10.0026 13.2679C10.1464 13.2679 10.264 13.2091 10.3882 13.0849L12.5647 10.9084C12.6497 10.8234 12.702 10.7058 12.702 10.5685C12.702 10.3071 12.4928 10.098 12.2248 10.098C12.081 10.098 11.9634 10.1502 11.8784 10.2417L11.1072 11.0261L10.4405 11.8169L10.4928 10.4313V7.16332C10.4928 6.87574 10.2902 6.67312 10.0026 6.67312Z" fill="#99A0AE"/>
<path d="M41.9974 15.8334C42.3439 15.8334 42.6338 15.5632 42.6338 15.2307V10.6236H47.2014C47.5408 10.6236 47.8307 10.3396 47.8307 10.0001C47.8307 9.66061 47.5408 9.38349 47.2014 9.38349H42.6338V4.76948C42.6338 4.43694 42.3439 4.16675 41.9974 4.16675C41.6509 4.16675 41.3681 4.43694 41.3681 4.76948V9.38349H36.7934C36.454 9.38349 36.1641 9.66061 36.1641 10.0001C36.1641 10.3396 36.454 10.6236 36.7934 10.6236H41.3681V15.2307C41.3681 15.5632 41.6509 15.8334 41.9974 15.8334Z" fill="#99A0AE"/>
<path d="M69.3145 13.7199H70.392V14.6936C70.392 16.0047 71.0473 16.6666 72.3706 16.6666H78.697C80.0076 16.6666 80.6693 16.0047 80.6693 14.6936V8.2529C80.6693 6.94184 80.0076 6.27995 78.697 6.27995H77.6132V5.3062C77.6132 3.99515 76.9516 3.33325 75.6409 3.33325H69.3145C67.9913 3.33325 67.3359 3.99515 67.3359 5.3062V11.7469C67.3359 13.058 67.9913 13.7199 69.3145 13.7199ZM69.3271 12.6952C68.697 12.6952 68.3504 12.3515 68.3504 11.6897V5.36348C68.3504 4.70159 68.697 4.35791 69.3271 4.35791H75.622C76.2458 4.35791 76.5987 4.70159 76.5987 5.36348V6.27995H72.3706C71.0473 6.27995 70.392 6.93548 70.392 8.2529V12.6952H69.3271ZM72.3832 15.6419C71.7594 15.6419 71.4065 15.2982 71.4065 14.6364V8.31018C71.4065 7.64829 71.7594 7.30461 72.3832 7.30461H78.6781C79.3019 7.30461 79.6548 7.64829 79.6548 8.31018V14.6364C79.6548 15.2982 79.3019 15.6419 78.6781 15.6419H72.3832Z" fill="#99A0AE"/>
</svg>
