<svg width="20" height="20" viewBox="0 0 20 20" fill="none" xmlns="http://www.w3.org/2000/svg">
<path d="M10.1562 8.63647V11.541H14.275C14.0941 12.4751 13.5514 13.2661 12.7374 13.7979L15.2212 15.6866C16.6683 14.3775 17.5032 12.4547 17.5032 10.1706C17.5032 9.63884 17.4545 9.12742 17.364 8.63656L10.1562 8.63647Z" fill="#4285F4"/>
<path d="M3.32091 6.63867C2.79914 7.64773 2.5 8.78639 2.5 10C2.5 11.2136 2.79914 12.3523 3.32091 13.3613C3.32091 13.3681 5.86735 11.425 5.86735 11.425C5.71429 10.975 5.62382 10.4977 5.62382 9.99993C5.62382 9.50214 5.71429 9.02489 5.86735 8.57489L3.32091 6.63867Z" fill="#FBBC05"/>
<path d="M10.1524 5.48638C11.2795 5.48638 12.2813 5.86819 13.0814 6.60457L15.273 4.45685C13.9441 3.24323 12.2188 2.5 10.1524 2.5C7.16074 2.5 4.57959 4.1841 3.32031 6.63866L5.86667 8.57504C6.47193 6.80229 8.16259 5.48638 10.1524 5.48638Z" fill="#EA4335"/>
<path d="M5.86338 11.4277L5.3032 11.848L3.32031 13.3616C4.57959 15.8093 7.16058 17.5003 10.1522 17.5003C12.2185 17.5003 13.9509 16.8321 15.2171 15.6866L12.7334 13.798C12.0516 14.248 11.1819 14.5207 10.1522 14.5207C8.16243 14.5207 6.47184 13.2048 5.86651 11.4321L5.86338 11.4277Z" fill="#34A853"/>
</svg>
