<svg width="1362" height="577" viewBox="0 0 1362 577" fill="none" xmlns="http://www.w3.org/2000/svg">
<path d="M31.9178 -56H0.872314V-22.7368M31.9178 -56V-22.7368M31.9178 -56H62.9632M31.9178 -22.7368H0.872314M31.9178 -22.7368V10.5263M31.9178 -22.7368H62.9632M0.872314 -22.7368V10.5263M31.9178 10.5263H0.872314M31.9178 10.5263V43.7895M31.9178 10.5263H62.9632M0.872314 10.5263V43.7895M31.9178 43.7895H0.872314M31.9178 43.7895V77.0526M31.9178 43.7895H62.9632M0.872314 43.7895V77.0526M31.9178 77.0526H0.872314M31.9178 77.0526V110.316M31.9178 77.0526H62.9632M0.872314 77.0526V110.316M31.9178 110.316H0.872314M31.9178 110.316V143.579M31.9178 110.316H62.9632M0.872314 110.316V143.579M31.9178 143.579H0.872314M31.9178 143.579V176.842M31.9178 143.579H62.9632M0.872314 143.579V176.842M31.9178 176.842H0.872314M31.9178 176.842V210.105M31.9178 176.842H62.9632M0.872314 176.842V210.105M31.9178 210.105H0.872314M31.9178 210.105V243.368M31.9178 210.105H62.9632M0.872314 210.105V243.368M31.9178 243.368H0.872314M31.9178 243.368V276.632M31.9178 243.368H62.9632M0.872314 243.368V276.632M31.9178 276.632H0.872314M31.9178 276.632V309.895M31.9178 276.632H62.9632M0.872314 276.632V309.895M31.9178 309.895H0.872314M31.9178 309.895V343.158M31.9178 309.895H62.9632M0.872314 309.895V343.158M31.9178 343.158H0.872314M31.9178 343.158V376.421M31.9178 343.158H62.9632M0.872314 343.158V376.421M31.9178 376.421H0.872314M31.9178 376.421V409.684M31.9178 376.421H62.9632M0.872314 376.421V409.684M31.9178 409.684H0.872314M31.9178 409.684V442.947M31.9178 409.684H62.9632M0.872314 409.684V442.947M31.9178 442.947H0.872314M31.9178 442.947V476.211M31.9178 442.947H62.9632M0.872314 442.947V476.211M31.9178 476.211H0.872314M31.9178 476.211V509.474M31.9178 476.211H62.9632M0.872314 476.211V509.474M31.9178 509.474H0.872314M31.9178 509.474V542.737M31.9178 509.474H62.9632M0.872314 509.474V542.737M31.9178 542.737H0.872314M31.9178 542.737V576M31.9178 542.737H62.9632M0.872314 542.737V576H31.9178M31.9178 576H62.9632M62.9632 -56V-22.7368M62.9632 -56H94.0087M62.9632 -22.7368V10.5263M62.9632 -22.7368H94.0087M62.9632 10.5263V43.7895M62.9632 10.5263H94.0087M62.9632 43.7895V77.0526M62.9632 43.7895H94.0087M62.9632 77.0526V110.316M62.9632 77.0526H94.0087M62.9632 110.316V143.579M62.9632 110.316H94.0087M62.9632 143.579V176.842M62.9632 143.579H94.0087M62.9632 176.842V210.105M62.9632 176.842H94.0087M62.9632 210.105V243.368M62.9632 210.105H94.0087M62.9632 243.368V276.632M62.9632 243.368H94.0087M62.9632 276.632V309.895M62.9632 276.632H94.0087M62.9632 309.895V343.158M62.9632 309.895H94.0087M62.9632 343.158V376.421M62.9632 343.158H94.0087M62.9632 376.421V409.684M62.9632 376.421H94.0087M62.9632 409.684V442.947M62.9632 409.684H94.0087M62.9632 442.947V476.211M62.9632 442.947H94.0087M62.9632 476.211V509.474M62.9632 476.211H94.0087M62.9632 509.474V542.737M62.9632 509.474H94.0087M62.9632 542.737V576M62.9632 542.737H94.0087M62.9632 576H94.0087M94.0087 -56V-22.7368M94.0087 -56H125.054M94.0087 -22.7368V10.5263M94.0087 -22.7368H125.054M94.0087 10.5263V43.7895M94.0087 10.5263H125.054M94.0087 43.7895V77.0526M94.0087 43.7895H125.054M94.0087 77.0526V110.316M94.0087 77.0526H125.054M94.0087 110.316V143.579M94.0087 110.316H125.054M94.0087 143.579V176.842M94.0087 143.579H125.054M94.0087 176.842V210.105M94.0087 176.842H125.054M94.0087 210.105V243.368M94.0087 210.105H125.054M94.0087 243.368V276.632M94.0087 243.368H125.054M94.0087 276.632V309.895M94.0087 276.632H125.054M94.0087 309.895V343.158M94.0087 309.895H125.054M94.0087 343.158V376.421M94.0087 343.158H125.054M94.0087 376.421V409.684M94.0087 376.421H125.054M94.0087 409.684V442.947M94.0087 409.684H125.054M94.0087 442.947V476.211M94.0087 442.947H125.054M94.0087 476.211V509.474M94.0087 476.211H125.054M94.0087 509.474V542.737M94.0087 509.474H125.054M94.0087 542.737V576M94.0087 542.737H125.054M94.0087 576H125.054M125.054 -56V-22.7368M125.054 -56H156.1M125.054 -22.7368V10.5263M125.054 -22.7368H156.1M125.054 10.5263V43.7895M125.054 10.5263H156.1M125.054 43.7895V77.0526M125.054 43.7895H156.1M125.054 77.0526V110.316M125.054 77.0526H156.1M125.054 110.316V143.579M125.054 110.316H156.1M125.054 143.579V176.842M125.054 143.579H156.1M125.054 176.842V210.105M125.054 176.842H156.1M125.054 210.105V243.368M125.054 210.105H156.1M125.054 243.368V276.632M125.054 243.368H156.1M125.054 276.632V309.895M125.054 276.632H156.1M125.054 309.895V343.158M125.054 309.895H156.1M125.054 343.158V376.421M125.054 343.158H156.1M125.054 376.421V409.684M125.054 376.421H156.1M125.054 409.684V442.947M125.054 409.684H156.1M125.054 442.947V476.211M125.054 442.947H156.1M125.054 476.211V509.474M125.054 476.211H156.1M125.054 509.474V542.737M125.054 509.474H156.1M125.054 542.737V576M125.054 542.737H156.1M125.054 576H156.1M156.1 -56V-22.7368M156.1 -56H187.145M156.1 -22.7368V10.5263M156.1 -22.7368H187.145M156.1 10.5263V43.7895M156.1 10.5263H187.145M156.1 43.7895V77.0526M156.1 43.7895H187.145M156.1 77.0526V110.316M156.1 77.0526H187.145M156.1 110.316V143.579M156.1 110.316H187.145M156.1 143.579V176.842M156.1 143.579H187.145M156.1 176.842V210.105M156.1 176.842H187.145M156.1 210.105V243.368M156.1 210.105H187.145M156.1 243.368V276.632M156.1 243.368H187.145M156.1 276.632V309.895M156.1 276.632H187.145M156.1 309.895V343.158M156.1 309.895H187.145M156.1 343.158V376.421M156.1 343.158H187.145M156.1 376.421V409.684M156.1 376.421H187.145M156.1 409.684V442.947M156.1 409.684H187.145M156.1 442.947V476.211M156.1 442.947H187.145M156.1 476.211V509.474M156.1 476.211H187.145M156.1 509.474V542.737M156.1 509.474H187.145M156.1 542.737V576M156.1 542.737H187.145M156.1 576H187.145M187.145 -56V-22.7368M187.145 -56H218.19M187.145 -22.7368V10.5263M187.145 -22.7368H218.19M187.145 10.5263V43.7895M187.145 10.5263H218.19M187.145 43.7895V77.0526M187.145 43.7895H218.19M187.145 77.0526V110.316M187.145 77.0526H218.19M187.145 110.316V143.579M187.145 110.316H218.19M187.145 143.579V176.842M187.145 143.579H218.19M187.145 176.842V210.105M187.145 176.842H218.19M187.145 210.105V243.368M187.145 210.105H218.19M187.145 243.368V276.632M187.145 243.368H218.19M187.145 276.632V309.895M187.145 276.632H218.19M187.145 309.895V343.158M187.145 309.895H218.19M187.145 343.158V376.421M187.145 343.158H218.19M187.145 376.421V409.684M187.145 376.421H218.19M187.145 409.684V442.947M187.145 409.684H218.19M187.145 442.947V476.211M187.145 442.947H218.19M187.145 476.211V509.474M187.145 476.211H218.19M187.145 509.474V542.737M187.145 509.474H218.19M187.145 542.737V576M187.145 542.737H218.19M187.145 576H218.19M218.19 -56V-22.7368M218.19 -56H249.236M218.19 -22.7368V10.5263M218.19 -22.7368H249.236M218.19 10.5263V43.7895M218.19 10.5263H249.236M218.19 43.7895V77.0526M218.19 43.7895H249.236M218.19 77.0526V110.316M218.19 77.0526H249.236M218.19 110.316V143.579M218.19 110.316H249.236M218.19 143.579V176.842M218.19 143.579H249.236M218.19 176.842V210.105M218.19 176.842H249.236M218.19 210.105V243.368M218.19 210.105H249.236M218.19 243.368V276.632M218.19 243.368H249.236M218.19 276.632V309.895M218.19 276.632H249.236M218.19 309.895V343.158M218.19 309.895H249.236M218.19 343.158V376.421M218.19 343.158H249.236M218.19 376.421V409.684M218.19 376.421H249.236M218.19 409.684V442.947M218.19 409.684H249.236M218.19 442.947V476.211M218.19 442.947H249.236M218.19 476.211V509.474M218.19 476.211H249.236M218.19 509.474V542.737M218.19 509.474H249.236M218.19 542.737V576M218.19 542.737H249.236M218.19 576H249.236M249.236 -56V-22.7368M249.236 -56H280.281M249.236 -22.7368V10.5263M249.236 -22.7368H280.281M249.236 10.5263V43.7895M249.236 10.5263H280.281M249.236 43.7895V77.0526M249.236 43.7895H280.281M249.236 77.0526V110.316M249.236 77.0526H280.281M249.236 110.316V143.579M249.236 110.316H280.281M249.236 143.579V176.842M249.236 143.579H280.281M249.236 176.842V210.105M249.236 176.842H280.281M249.236 210.105V243.368M249.236 210.105H280.281M249.236 243.368V276.632M249.236 243.368H280.281M249.236 276.632V309.895M249.236 276.632H280.281M249.236 309.895V343.158M249.236 309.895H280.281M249.236 343.158V376.421M249.236 343.158H280.281M249.236 376.421V409.684M249.236 376.421H280.281M249.236 409.684V442.947M249.236 409.684H280.281M249.236 442.947V476.211M249.236 442.947H280.281M249.236 476.211V509.474M249.236 476.211H280.281M249.236 509.474V542.737M249.236 509.474H280.281M249.236 542.737V576M249.236 542.737H280.281M249.236 576H280.281M280.281 -56V-22.7368M280.281 -56H311.327M280.281 -22.7368V10.5263M280.281 -22.7368H311.327M280.281 10.5263V43.7895M280.281 10.5263H311.327M280.281 43.7895V77.0526M280.281 43.7895H311.327M280.281 77.0526V110.316M280.281 77.0526H311.327M280.281 110.316V143.579M280.281 110.316H311.327M280.281 143.579V176.842M280.281 143.579H311.327M280.281 176.842V210.105M280.281 176.842H311.327M280.281 210.105V243.368M280.281 210.105H311.327M280.281 243.368V276.632M280.281 243.368H311.327M280.281 276.632V309.895M280.281 276.632H311.327M280.281 309.895V343.158M280.281 309.895H311.327M280.281 343.158V376.421M280.281 343.158H311.327M280.281 376.421V409.684M280.281 376.421H311.327M280.281 409.684V442.947M280.281 409.684H311.327M280.281 442.947V476.211M280.281 442.947H311.327M280.281 476.211V509.474M280.281 476.211H311.327M280.281 509.474V542.737M280.281 509.474H311.327M280.281 542.737V576M280.281 542.737H311.327M280.281 576H311.327M311.327 -56V-22.7368M311.327 -56H342.372M311.327 -22.7368V10.5263M311.327 -22.7368H342.372M311.327 10.5263V43.7895M311.327 10.5263H342.372M311.327 43.7895V77.0526M311.327 43.7895H342.372M311.327 77.0526V110.316M311.327 77.0526H342.372M311.327 110.316V143.579M311.327 110.316H342.372M311.327 143.579V176.842M311.327 143.579H342.372M311.327 176.842V210.105M311.327 176.842H342.372M311.327 210.105V243.368M311.327 210.105H342.372M311.327 243.368V276.632M311.327 243.368H342.372M311.327 276.632V309.895M311.327 276.632H342.372M311.327 309.895V343.158M311.327 309.895H342.372M311.327 343.158V376.421M311.327 343.158H342.372M311.327 376.421V409.684M311.327 376.421H342.372M311.327 409.684V442.947M311.327 409.684H342.372M311.327 442.947V476.211M311.327 442.947H342.372M311.327 476.211V509.474M311.327 476.211H342.372M311.327 509.474V542.737M311.327 509.474H342.372M311.327 542.737V576M311.327 542.737H342.372M311.327 576H342.372M342.372 -56V-22.7368M342.372 -56H373.418M342.372 -22.7368V10.5263M342.372 -22.7368H373.418M342.372 10.5263V43.7895M342.372 10.5263H373.418M342.372 43.7895V77.0526M342.372 43.7895H373.418M342.372 77.0526V110.316M342.372 77.0526H373.418M342.372 110.316V143.579M342.372 110.316H373.418M342.372 143.579V176.842M342.372 143.579H373.418M342.372 176.842V210.105M342.372 176.842H373.418M342.372 210.105V243.368M342.372 210.105H373.418M342.372 243.368V276.632M342.372 243.368H373.418M342.372 276.632V309.895M342.372 276.632H373.418M342.372 309.895V343.158M342.372 309.895H373.418M342.372 343.158V376.421M342.372 343.158H373.418M342.372 376.421V409.684M342.372 376.421H373.418M342.372 409.684V442.947M342.372 409.684H373.418M342.372 442.947V476.211M342.372 442.947H373.418M342.372 476.211V509.474M342.372 476.211H373.418M342.372 509.474V542.737M342.372 509.474H373.418M342.372 542.737V576M342.372 542.737H373.418M342.372 576H373.418M373.418 -56V-22.7368M373.418 -56H404.463M373.418 -22.7368V10.5263M373.418 -22.7368H404.463M373.418 10.5263V43.7895M373.418 10.5263H404.463M373.418 43.7895V77.0526M373.418 43.7895H404.463M373.418 77.0526V110.316M373.418 77.0526H404.463M373.418 110.316V143.579M373.418 110.316H404.463M373.418 143.579V176.842M373.418 143.579H404.463M373.418 176.842V210.105M373.418 176.842H404.463M373.418 210.105V243.368M373.418 210.105H404.463M373.418 243.368V276.632M373.418 243.368H404.463M373.418 276.632V309.895M373.418 276.632H404.463M373.418 309.895V343.158M373.418 309.895H404.463M373.418 343.158V376.421M373.418 343.158H404.463M373.418 376.421V409.684M373.418 376.421H404.463M373.418 409.684V442.947M373.418 409.684H404.463M373.418 442.947V476.211M373.418 442.947H404.463M373.418 476.211V509.474M373.418 476.211H404.463M373.418 509.474V542.737M373.418 509.474H404.463M373.418 542.737V576M373.418 542.737H404.463M373.418 576H404.463M404.463 -56V-22.7368M404.463 -56H435.509M404.463 -22.7368V10.5263M404.463 -22.7368H435.509M404.463 10.5263V43.7895M404.463 10.5263H435.509M404.463 43.7895V77.0526M404.463 43.7895H435.509M404.463 77.0526V110.316M404.463 77.0526H435.509M404.463 110.316V143.579M404.463 110.316H435.509M404.463 143.579V176.842M404.463 143.579H435.509M404.463 176.842V210.105M404.463 176.842H435.509M404.463 210.105V243.368M404.463 210.105H435.509M404.463 243.368V276.632M404.463 243.368H435.509M404.463 276.632V309.895M404.463 276.632H435.509M404.463 309.895V343.158M404.463 309.895H435.509M404.463 343.158V376.421M404.463 343.158H435.509M404.463 376.421V409.684M404.463 376.421H435.509M404.463 409.684V442.947M404.463 409.684H435.509M404.463 442.947V476.211M404.463 442.947H435.509M404.463 476.211V509.474M404.463 476.211H435.509M404.463 509.474V542.737M404.463 509.474H435.509M404.463 542.737V576M404.463 542.737H435.509M404.463 576H435.509M435.509 -56V-22.7368M435.509 -56H466.554M435.509 -22.7368V10.5263M435.509 -22.7368H466.554M435.509 10.5263V43.7895M435.509 10.5263H466.554M435.509 43.7895V77.0526M435.509 43.7895H466.554M435.509 77.0526V110.316M435.509 77.0526H466.554M435.509 110.316V143.579M435.509 110.316H466.554M435.509 143.579V176.842M435.509 143.579H466.554M435.509 176.842V210.105M435.509 176.842H466.554M435.509 210.105V243.368M435.509 210.105H466.554M435.509 243.368V276.632M435.509 243.368H466.554M435.509 276.632V309.895M435.509 276.632H466.554M435.509 309.895V343.158M435.509 309.895H466.554M435.509 343.158V376.421M435.509 343.158H466.554M435.509 376.421V409.684M435.509 376.421H466.554M435.509 409.684V442.947M435.509 409.684H466.554M435.509 442.947V476.211M435.509 442.947H466.554M435.509 476.211V509.474M435.509 476.211H466.554M435.509 509.474V542.737M435.509 509.474H466.554M435.509 542.737V576M435.509 542.737H466.554M435.509 576H466.554M466.554 -56V-22.7368M466.554 -56H497.6M466.554 -22.7368V10.5263M466.554 -22.7368H497.6M466.554 10.5263V43.7895M466.554 10.5263H497.6M466.554 43.7895V77.0526M466.554 43.7895H497.6M466.554 77.0526V110.316M466.554 77.0526H497.6M466.554 110.316V143.579M466.554 110.316H497.6M466.554 143.579V176.842M466.554 143.579H497.6M466.554 176.842V210.105M466.554 176.842H497.6M466.554 210.105V243.368M466.554 210.105H497.6M466.554 243.368V276.632M466.554 243.368H497.6M466.554 276.632V309.895M466.554 276.632H497.6M466.554 309.895V343.158M466.554 309.895H497.6M466.554 343.158V376.421M466.554 343.158H497.6M466.554 376.421V409.684M466.554 376.421H497.6M466.554 409.684V442.947M466.554 409.684H497.6M466.554 442.947V476.211M466.554 442.947H497.6M466.554 476.211V509.474M466.554 476.211H497.6M466.554 509.474V542.737M466.554 509.474H497.6M466.554 542.737V576M466.554 542.737H497.6M466.554 576H497.6M497.6 -56V-22.7368M497.6 -56H528.645M497.6 -22.7368V10.5263M497.6 -22.7368H528.645M497.6 10.5263V43.7895M497.6 10.5263H528.645M497.6 43.7895V77.0526M497.6 43.7895H528.645M497.6 77.0526V110.316M497.6 77.0526H528.645M497.6 110.316V143.579M497.6 110.316H528.645M497.6 143.579V176.842M497.6 143.579H528.645M497.6 176.842V210.105M497.6 176.842H528.645M497.6 210.105V243.368M497.6 210.105H528.645M497.6 243.368V276.632M497.6 243.368H528.645M497.6 276.632V309.895M497.6 276.632H528.645M497.6 309.895V343.158M497.6 309.895H528.645M497.6 343.158V376.421M497.6 343.158H528.645M497.6 376.421V409.684M497.6 376.421H528.645M497.6 409.684V442.947M497.6 409.684H528.645M497.6 442.947V476.211M497.6 442.947H528.645M497.6 476.211V509.474M497.6 476.211H528.645M497.6 509.474V542.737M497.6 509.474H528.645M497.6 542.737V576M497.6 542.737H528.645M497.6 576H528.645M528.645 -56V-22.7368M528.645 -56H559.69M528.645 -22.7368V10.5263M528.645 -22.7368H559.69M528.645 10.5263V43.7895M528.645 10.5263H559.69M528.645 43.7895V77.0526M528.645 43.7895H559.69M528.645 77.0526V110.316M528.645 77.0526H559.69M528.645 110.316V143.579M528.645 110.316H559.69M528.645 143.579V176.842M528.645 143.579H559.69M528.645 176.842V210.105M528.645 176.842H559.69M528.645 210.105V243.368M528.645 210.105H559.69M528.645 243.368V276.632M528.645 243.368H559.69M528.645 276.632V309.895M528.645 276.632H559.69M528.645 309.895V343.158M528.645 309.895H559.69M528.645 343.158V376.421M528.645 343.158H559.69M528.645 376.421V409.684M528.645 376.421H559.69M528.645 409.684V442.947M528.645 409.684H559.69M528.645 442.947V476.211M528.645 442.947H559.69M528.645 476.211V509.474M528.645 476.211H559.69M528.645 509.474V542.737M528.645 509.474H559.69M528.645 542.737V576M528.645 542.737H559.69M528.645 576H559.69M559.69 -56V-22.7368M559.69 -56H590.736M559.69 -22.7368V10.5263M559.69 -22.7368H590.736M559.69 10.5263V43.7895M559.69 10.5263H590.736M559.69 43.7895V77.0526M559.69 43.7895H590.736M559.69 77.0526V110.316M559.69 77.0526H590.736M559.69 110.316V143.579M559.69 110.316H590.736M559.69 143.579V176.842M559.69 143.579H590.736M559.69 176.842V210.105M559.69 176.842H590.736M559.69 210.105V243.368M559.69 210.105H590.736M559.69 243.368V276.632M559.69 243.368H590.736M559.69 276.632V309.895M559.69 276.632H590.736M559.69 309.895V343.158M559.69 309.895H590.736M559.69 343.158V376.421M559.69 343.158H590.736M559.69 376.421V409.684M559.69 376.421H590.736M559.69 409.684V442.947M559.69 409.684H590.736M559.69 442.947V476.211M559.69 442.947H590.736M559.69 476.211V509.474M559.69 476.211H590.736M559.69 509.474V542.737M559.69 509.474H590.736M559.69 542.737V576M559.69 542.737H590.736M559.69 576H590.736M590.736 -56V-22.7368M590.736 -56H621.781M590.736 -22.7368V10.5263M590.736 -22.7368H621.781M590.736 10.5263V43.7895M590.736 10.5263H621.781M590.736 43.7895V77.0526M590.736 43.7895H621.781M590.736 77.0526V110.316M590.736 77.0526H621.781M590.736 110.316V143.579M590.736 110.316H621.781M590.736 143.579V176.842M590.736 143.579H621.781M590.736 176.842V210.105M590.736 176.842H621.781M590.736 210.105V243.368M590.736 210.105H621.781M590.736 243.368V276.632M590.736 243.368H621.781M590.736 276.632V309.895M590.736 276.632H621.781M590.736 309.895V343.158M590.736 309.895H621.781M590.736 343.158V376.421M590.736 343.158H621.781M590.736 376.421V409.684M590.736 376.421H621.781M590.736 409.684V442.947M590.736 409.684H621.781M590.736 442.947V476.211M590.736 442.947H621.781M590.736 476.211V509.474M590.736 476.211H621.781M590.736 509.474V542.737M590.736 509.474H621.781M590.736 542.737V576M590.736 542.737H621.781M590.736 576H621.781M621.781 -56V-22.7368M621.781 -56H652.827M621.781 -22.7368V10.5263M621.781 -22.7368H652.827M621.781 10.5263V43.7895M621.781 10.5263H652.827M621.781 43.7895V77.0526M621.781 43.7895H652.827M621.781 77.0526V110.316M621.781 77.0526H652.827M621.781 110.316V143.579M621.781 110.316H652.827M621.781 143.579V176.842M621.781 143.579H652.827M621.781 176.842V210.105M621.781 176.842H652.827M621.781 210.105V243.368M621.781 210.105H652.827M621.781 243.368V276.632M621.781 243.368H652.827M621.781 276.632V309.895M621.781 276.632H652.827M621.781 309.895V343.158M621.781 309.895H652.827M621.781 343.158V376.421M621.781 343.158H652.827M621.781 376.421V409.684M621.781 376.421H652.827M621.781 409.684V442.947M621.781 409.684H652.827M621.781 442.947V476.211M621.781 442.947H652.827M621.781 476.211V509.474M621.781 476.211H652.827M621.781 509.474V542.737M621.781 509.474H652.827M621.781 542.737V576M621.781 542.737H652.827M621.781 576H652.827M652.827 -56V-22.7368M652.827 -56H683.872M652.827 -22.7368V10.5263M652.827 -22.7368H683.872M652.827 10.5263V43.7895M652.827 10.5263H683.872M652.827 43.7895V77.0526M652.827 43.7895H683.872M652.827 77.0526V110.316M652.827 77.0526H683.872M652.827 110.316V143.579M652.827 110.316H683.872M652.827 143.579V176.842M652.827 143.579H683.872M652.827 176.842V210.105M652.827 176.842H683.872M652.827 210.105V243.368M652.827 210.105H683.872M652.827 243.368V276.632M652.827 243.368H683.872M652.827 276.632V309.895M652.827 276.632H683.872M652.827 309.895V343.158M652.827 309.895H683.872M652.827 343.158V376.421M652.827 343.158H683.872M652.827 376.421V409.684M652.827 376.421H683.872M652.827 409.684V442.947M652.827 409.684H683.872M652.827 442.947V476.211M652.827 442.947H683.872M652.827 476.211V509.474M652.827 476.211H683.872M652.827 509.474V542.737M652.827 509.474H683.872M652.827 542.737V576M652.827 542.737H683.872M652.827 576H683.872M683.872 -56V-22.7368M683.872 -56H714.918M683.872 -22.7368V10.5263M683.872 -22.7368H714.918M683.872 10.5263V43.7895M683.872 10.5263H714.918M683.872 43.7895V77.0526M683.872 43.7895H714.918M683.872 77.0526V110.316M683.872 77.0526H714.918M683.872 110.316V143.579M683.872 110.316H714.918M683.872 143.579V176.842M683.872 143.579H714.918M683.872 176.842V210.105M683.872 176.842H714.918M683.872 210.105V243.368M683.872 210.105H714.918M683.872 243.368V276.632M683.872 243.368H714.918M683.872 276.632V309.895M683.872 276.632H714.918M683.872 309.895V343.158M683.872 309.895H714.918M683.872 343.158V376.421M683.872 343.158H714.918M683.872 376.421V409.684M683.872 376.421H714.918M683.872 409.684V442.947M683.872 409.684H714.918M683.872 442.947V476.211M683.872 442.947H714.918M683.872 476.211V509.474M683.872 476.211H714.918M683.872 509.474V542.737M683.872 509.474H714.918M683.872 542.737V576M683.872 542.737H714.918M683.872 576H714.918M714.918 -56V-22.7368M714.918 -56H745.963M714.918 -22.7368V10.5263M714.918 -22.7368H745.963M714.918 10.5263V43.7895M714.918 10.5263H745.963M714.918 43.7895V77.0526M714.918 43.7895H745.963M714.918 77.0526V110.316M714.918 77.0526H745.963M714.918 110.316V143.579M714.918 110.316H745.963M714.918 143.579V176.842M714.918 143.579H745.963M714.918 176.842V210.105M714.918 176.842H745.963M714.918 210.105V243.368M714.918 210.105H745.963M714.918 243.368V276.632M714.918 243.368H745.963M714.918 276.632V309.895M714.918 276.632H745.963M714.918 309.895V343.158M714.918 309.895H745.963M714.918 343.158V376.421M714.918 343.158H745.963M714.918 376.421V409.684M714.918 376.421H745.963M714.918 409.684V442.947M714.918 409.684H745.963M714.918 442.947V476.211M714.918 442.947H745.963M714.918 476.211V509.474M714.918 476.211H745.963M714.918 509.474V542.737M714.918 509.474H745.963M714.918 542.737V576M714.918 542.737H745.963M714.918 576H745.963M745.963 -56V-22.7368M745.963 -56H777.009M745.963 -22.7368V10.5263M745.963 -22.7368H777.009M745.963 10.5263V43.7895M745.963 10.5263H777.009M745.963 43.7895V77.0526M745.963 43.7895H777.009M745.963 77.0526V110.316M745.963 77.0526H777.009M745.963 110.316V143.579M745.963 110.316H777.009M745.963 143.579V176.842M745.963 143.579H777.009M745.963 176.842V210.105M745.963 176.842H777.009M745.963 210.105V243.368M745.963 210.105H777.009M745.963 243.368V276.632M745.963 243.368H777.009M745.963 276.632V309.895M745.963 276.632H777.009M745.963 309.895V343.158M745.963 309.895H777.009M745.963 343.158V376.421M745.963 343.158H777.009M745.963 376.421V409.684M745.963 376.421H777.009M745.963 409.684V442.947M745.963 409.684H777.009M745.963 442.947V476.211M745.963 442.947H777.009M745.963 476.211V509.474M745.963 476.211H777.009M745.963 509.474V542.737M745.963 509.474H777.009M745.963 542.737V576M745.963 542.737H777.009M745.963 576H777.009M777.009 -56V-22.7368M777.009 -56H808.054M777.009 -22.7368V10.5263M777.009 -22.7368H808.054M777.009 10.5263V43.7895M777.009 10.5263H808.054M777.009 43.7895V77.0526M777.009 43.7895H808.054M777.009 77.0526V110.316M777.009 77.0526H808.054M777.009 110.316V143.579M777.009 110.316H808.054M777.009 143.579V176.842M777.009 143.579H808.054M777.009 176.842V210.105M777.009 176.842H808.054M777.009 210.105V243.368M777.009 210.105H808.054M777.009 243.368V276.632M777.009 243.368H808.054M777.009 276.632V309.895M777.009 276.632H808.054M777.009 309.895V343.158M777.009 309.895H808.054M777.009 343.158V376.421M777.009 343.158H808.054M777.009 376.421V409.684M777.009 376.421H808.054M777.009 409.684V442.947M777.009 409.684H808.054M777.009 442.947V476.211M777.009 442.947H808.054M777.009 476.211V509.474M777.009 476.211H808.054M777.009 509.474V542.737M777.009 509.474H808.054M777.009 542.737V576M777.009 542.737H808.054M777.009 576H808.054M808.054 -56V-22.7368M808.054 -56H839.1M808.054 -22.7368V10.5263M808.054 -22.7368H839.1M808.054 10.5263V43.7895M808.054 10.5263H839.1M808.054 43.7895V77.0526M808.054 43.7895H839.1M808.054 77.0526V110.316M808.054 77.0526H839.1M808.054 110.316V143.579M808.054 110.316H839.1M808.054 143.579V176.842M808.054 143.579H839.1M808.054 176.842V210.105M808.054 176.842H839.1M808.054 210.105V243.368M808.054 210.105H839.1M808.054 243.368V276.632M808.054 243.368H839.1M808.054 276.632V309.895M808.054 276.632H839.1M808.054 309.895V343.158M808.054 309.895H839.1M808.054 343.158V376.421M808.054 343.158H839.1M808.054 376.421V409.684M808.054 376.421H839.1M808.054 409.684V442.947M808.054 409.684H839.1M808.054 442.947V476.211M808.054 442.947H839.1M808.054 476.211V509.474M808.054 476.211H839.1M808.054 509.474V542.737M808.054 509.474H839.1M808.054 542.737V576M808.054 542.737H839.1M808.054 576H839.1M839.1 -56V-22.7368M839.1 -56H870.145M839.1 -22.7368V10.5263M839.1 -22.7368H870.145M839.1 10.5263V43.7895M839.1 10.5263H870.145M839.1 43.7895V77.0526M839.1 43.7895H870.145M839.1 77.0526V110.316M839.1 77.0526H870.145M839.1 110.316V143.579M839.1 110.316H870.145M839.1 143.579V176.842M839.1 143.579H870.145M839.1 176.842V210.105M839.1 176.842H870.145M839.1 210.105V243.368M839.1 210.105H870.145M839.1 243.368V276.632M839.1 243.368H870.145M839.1 276.632V309.895M839.1 276.632H870.145M839.1 309.895V343.158M839.1 309.895H870.145M839.1 343.158V376.421M839.1 343.158H870.145M839.1 376.421V409.684M839.1 376.421H870.145M839.1 409.684V442.947M839.1 409.684H870.145M839.1 442.947V476.211M839.1 442.947H870.145M839.1 476.211V509.474M839.1 476.211H870.145M839.1 509.474V542.737M839.1 509.474H870.145M839.1 542.737V576M839.1 542.737H870.145M839.1 576H870.145M870.145 -56V-22.7368M870.145 -56H901.19M870.145 -22.7368V10.5263M870.145 -22.7368H901.19M870.145 10.5263V43.7895M870.145 10.5263H901.19M870.145 43.7895V77.0526M870.145 43.7895H901.19M870.145 77.0526V110.316M870.145 77.0526H901.19M870.145 110.316V143.579M870.145 110.316H901.19M870.145 143.579V176.842M870.145 143.579H901.19M870.145 176.842V210.105M870.145 176.842H901.19M870.145 210.105V243.368M870.145 210.105H901.19M870.145 243.368V276.632M870.145 243.368H901.19M870.145 276.632V309.895M870.145 276.632H901.19M870.145 309.895V343.158M870.145 309.895H901.19M870.145 343.158V376.421M870.145 343.158H901.19M870.145 376.421V409.684M870.145 376.421H901.19M870.145 409.684V442.947M870.145 409.684H901.19M870.145 442.947V476.211M870.145 442.947H901.19M870.145 476.211V509.474M870.145 476.211H901.19M870.145 509.474V542.737M870.145 509.474H901.19M870.145 542.737V576M870.145 542.737H901.19M870.145 576H901.19M901.19 -56V-22.7368M901.19 -56H932.236M901.19 -22.7368V10.5263M901.19 -22.7368H932.236M901.19 10.5263V43.7895M901.19 10.5263H932.236M901.19 43.7895V77.0526M901.19 43.7895H932.236M901.19 77.0526V110.316M901.19 77.0526H932.236M901.19 110.316V143.579M901.19 110.316H932.236M901.19 143.579V176.842M901.19 143.579H932.236M901.19 176.842V210.105M901.19 176.842H932.236M901.19 210.105V243.368M901.19 210.105H932.236M901.19 243.368V276.632M901.19 243.368H932.236M901.19 276.632V309.895M901.19 276.632H932.236M901.19 309.895V343.158M901.19 309.895H932.236M901.19 343.158V376.421M901.19 343.158H932.236M901.19 376.421V409.684M901.19 376.421H932.236M901.19 409.684V442.947M901.19 409.684H932.236M901.19 442.947V476.211M901.19 442.947H932.236M901.19 476.211V509.474M901.19 476.211H932.236M901.19 509.474V542.737M901.19 509.474H932.236M901.19 542.737V576M901.19 542.737H932.236M901.19 576H932.236M932.236 -56V-22.7368M932.236 -56H963.281M932.236 -22.7368V10.5263M932.236 -22.7368H963.281M932.236 10.5263V43.7895M932.236 10.5263H963.281M932.236 43.7895V77.0526M932.236 43.7895H963.281M932.236 77.0526V110.316M932.236 77.0526H963.281M932.236 110.316V143.579M932.236 110.316H963.281M932.236 143.579V176.842M932.236 143.579H963.281M932.236 176.842V210.105M932.236 176.842H963.281M932.236 210.105V243.368M932.236 210.105H963.281M932.236 243.368V276.632M932.236 243.368H963.281M932.236 276.632V309.895M932.236 276.632H963.281M932.236 309.895V343.158M932.236 309.895H963.281M932.236 343.158V376.421M932.236 343.158H963.281M932.236 376.421V409.684M932.236 376.421H963.281M932.236 409.684V442.947M932.236 409.684H963.281M932.236 442.947V476.211M932.236 442.947H963.281M932.236 476.211V509.474M932.236 476.211H963.281M932.236 509.474V542.737M932.236 509.474H963.281M932.236 542.737V576M932.236 542.737H963.281M932.236 576H963.281M963.281 -56V-22.7368M963.281 -56H994.327M963.281 -22.7368V10.5263M963.281 -22.7368H994.327M963.281 10.5263V43.7895M963.281 10.5263H994.327M963.281 43.7895V77.0526M963.281 43.7895H994.327M963.281 77.0526V110.316M963.281 77.0526H994.327M963.281 110.316V143.579M963.281 110.316H994.327M963.281 143.579V176.842M963.281 143.579H994.327M963.281 176.842V210.105M963.281 176.842H994.327M963.281 210.105V243.368M963.281 210.105H994.327M963.281 243.368V276.632M963.281 243.368H994.327M963.281 276.632V309.895M963.281 276.632H994.327M963.281 309.895V343.158M963.281 309.895H994.327M963.281 343.158V376.421M963.281 343.158H994.327M963.281 376.421V409.684M963.281 376.421H994.327M963.281 409.684V442.947M963.281 409.684H994.327M963.281 442.947V476.211M963.281 442.947H994.327M963.281 476.211V509.474M963.281 476.211H994.327M963.281 509.474V542.737M963.281 509.474H994.327M963.281 542.737V576M963.281 542.737H994.327M963.281 576H994.327M994.327 -56V-22.7368M994.327 -56H1025.37M994.327 -22.7368V10.5263M994.327 -22.7368H1025.37M994.327 10.5263V43.7895M994.327 10.5263H1025.37M994.327 43.7895V77.0526M994.327 43.7895H1025.37M994.327 77.0526V110.316M994.327 77.0526H1025.37M994.327 110.316V143.579M994.327 110.316H1025.37M994.327 143.579V176.842M994.327 143.579H1025.37M994.327 176.842V210.105M994.327 176.842H1025.37M994.327 210.105V243.368M994.327 210.105H1025.37M994.327 243.368V276.632M994.327 243.368H1025.37M994.327 276.632V309.895M994.327 276.632H1025.37M994.327 309.895V343.158M994.327 309.895H1025.37M994.327 343.158V376.421M994.327 343.158H1025.37M994.327 376.421V409.684M994.327 376.421H1025.37M994.327 409.684V442.947M994.327 409.684H1025.37M994.327 442.947V476.211M994.327 442.947H1025.37M994.327 476.211V509.474M994.327 476.211H1025.37M994.327 509.474V542.737M994.327 509.474H1025.37M994.327 542.737V576M994.327 542.737H1025.37M994.327 576H1025.37M1025.37 -56V-22.7368M1025.37 -56H1056.42M1025.37 -22.7368V10.5263M1025.37 -22.7368H1056.42M1025.37 10.5263V43.7895M1025.37 10.5263H1056.42M1025.37 43.7895V77.0526M1025.37 43.7895H1056.42M1025.37 77.0526V110.316M1025.37 77.0526H1056.42M1025.37 110.316V143.579M1025.37 110.316H1056.42M1025.37 143.579V176.842M1025.37 143.579H1056.42M1025.37 176.842V210.105M1025.37 176.842H1056.42M1025.37 210.105V243.368M1025.37 210.105H1056.42M1025.37 243.368V276.632M1025.37 243.368H1056.42M1025.37 276.632V309.895M1025.37 276.632H1056.42M1025.37 309.895V343.158M1025.37 309.895H1056.42M1025.37 343.158V376.421M1025.37 343.158H1056.42M1025.37 376.421V409.684M1025.37 376.421H1056.42M1025.37 409.684V442.947M1025.37 409.684H1056.42M1025.37 442.947V476.211M1025.37 442.947H1056.42M1025.37 476.211V509.474M1025.37 476.211H1056.42M1025.37 509.474V542.737M1025.37 509.474H1056.42M1025.37 542.737V576M1025.37 542.737H1056.42M1025.37 576H1056.42M1056.42 -56V-22.7368M1056.42 -56H1087.46M1056.42 -22.7368V10.5263M1056.42 -22.7368H1087.46M1056.42 10.5263V43.7895M1056.42 10.5263H1087.46M1056.42 43.7895V77.0526M1056.42 43.7895H1087.46M1056.42 77.0526V110.316M1056.42 77.0526H1087.46M1056.42 110.316V143.579M1056.42 110.316H1087.46M1056.42 143.579V176.842M1056.42 143.579H1087.46M1056.42 176.842V210.105M1056.42 176.842H1087.46M1056.42 210.105V243.368M1056.42 210.105H1087.46M1056.42 243.368V276.632M1056.42 243.368H1087.46M1056.42 276.632V309.895M1056.42 276.632H1087.46M1056.42 309.895V343.158M1056.42 309.895H1087.46M1056.42 343.158V376.421M1056.42 343.158H1087.46M1056.42 376.421V409.684M1056.42 376.421H1087.46M1056.42 409.684V442.947M1056.42 409.684H1087.46M1056.42 442.947V476.211M1056.42 442.947H1087.46M1056.42 476.211V509.474M1056.42 476.211H1087.46M1056.42 509.474V542.737M1056.42 509.474H1087.46M1056.42 542.737V576M1056.42 542.737H1087.46M1056.42 576H1087.46M1087.46 -56V-22.7368M1087.46 -56H1118.51M1087.46 -22.7368V10.5263M1087.46 -22.7368H1118.51M1087.46 10.5263V43.7895M1087.46 10.5263H1118.51M1087.46 43.7895V77.0526M1087.46 43.7895H1118.51M1087.46 77.0526V110.316M1087.46 77.0526H1118.51M1087.46 110.316V143.579M1087.46 110.316H1118.51M1087.46 143.579V176.842M1087.46 143.579H1118.51M1087.46 176.842V210.105M1087.46 176.842H1118.51M1087.46 210.105V243.368M1087.46 210.105H1118.51M1087.46 243.368V276.632M1087.46 243.368H1118.51M1087.46 276.632V309.895M1087.46 276.632H1118.51M1087.46 309.895V343.158M1087.46 309.895H1118.51M1087.46 343.158V376.421M1087.46 343.158H1118.51M1087.46 376.421V409.684M1087.46 376.421H1118.51M1087.46 409.684V442.947M1087.46 409.684H1118.51M1087.46 442.947V476.211M1087.46 442.947H1118.51M1087.46 476.211V509.474M1087.46 476.211H1118.51M1087.46 509.474V542.737M1087.46 509.474H1118.51M1087.46 542.737V576M1087.46 542.737H1118.51M1087.46 576H1118.51M1118.51 -56V-22.7368M1118.51 -56H1149.55M1118.51 -22.7368V10.5263M1118.51 -22.7368H1149.55M1118.51 10.5263V43.7895M1118.51 10.5263H1149.55M1118.51 43.7895V77.0526M1118.51 43.7895H1149.55M1118.51 77.0526V110.316M1118.51 77.0526H1149.55M1118.51 110.316V143.579M1118.51 110.316H1149.55M1118.51 143.579V176.842M1118.51 143.579H1149.55M1118.51 176.842V210.105M1118.51 176.842H1149.55M1118.51 210.105V243.368M1118.51 210.105H1149.55M1118.51 243.368V276.632M1118.51 243.368H1149.55M1118.51 276.632V309.895M1118.51 276.632H1149.55M1118.51 309.895V343.158M1118.51 309.895H1149.55M1118.51 343.158V376.421M1118.51 343.158H1149.55M1118.51 376.421V409.684M1118.51 376.421H1149.55M1118.51 409.684V442.947M1118.51 409.684H1149.55M1118.51 442.947V476.211M1118.51 442.947H1149.55M1118.51 476.211V509.474M1118.51 476.211H1149.55M1118.51 509.474V542.737M1118.51 509.474H1149.55M1118.51 542.737V576M1118.51 542.737H1149.55M1118.51 576H1149.55M1149.55 -56V-22.7368M1149.55 -56H1180.6M1149.55 -22.7368V10.5263M1149.55 -22.7368H1180.6M1149.55 10.5263V43.7895M1149.55 10.5263H1180.6M1149.55 43.7895V77.0526M1149.55 43.7895H1180.6M1149.55 77.0526V110.316M1149.55 77.0526H1180.6M1149.55 110.316V143.579M1149.55 110.316H1180.6M1149.55 143.579V176.842M1149.55 143.579H1180.6M1149.55 176.842V210.105M1149.55 176.842H1180.6M1149.55 210.105V243.368M1149.55 210.105H1180.6M1149.55 243.368V276.632M1149.55 243.368H1180.6M1149.55 276.632V309.895M1149.55 276.632H1180.6M1149.55 309.895V343.158M1149.55 309.895H1180.6M1149.55 343.158V376.421M1149.55 343.158H1180.6M1149.55 376.421V409.684M1149.55 376.421H1180.6M1149.55 409.684V442.947M1149.55 409.684H1180.6M1149.55 442.947V476.211M1149.55 442.947H1180.6M1149.55 476.211V509.474M1149.55 476.211H1180.6M1149.55 509.474V542.737M1149.55 509.474H1180.6M1149.55 542.737V576M1149.55 542.737H1180.6M1149.55 576H1180.6M1180.6 -56V-22.7368M1180.6 -56H1211.64M1180.6 -22.7368V10.5263M1180.6 -22.7368H1211.64M1180.6 10.5263V43.7895M1180.6 10.5263H1211.64M1180.6 43.7895V77.0526M1180.6 43.7895H1211.64M1180.6 77.0526V110.316M1180.6 77.0526H1211.64M1180.6 110.316V143.579M1180.6 110.316H1211.64M1180.6 143.579V176.842M1180.6 143.579H1211.64M1180.6 176.842V210.105M1180.6 176.842H1211.64M1180.6 210.105V243.368M1180.6 210.105H1211.64M1180.6 243.368V276.632M1180.6 243.368H1211.64M1180.6 276.632V309.895M1180.6 276.632H1211.64M1180.6 309.895V343.158M1180.6 309.895H1211.64M1180.6 343.158V376.421M1180.6 343.158H1211.64M1180.6 376.421V409.684M1180.6 376.421H1211.64M1180.6 409.684V442.947M1180.6 409.684H1211.64M1180.6 442.947V476.211M1180.6 442.947H1211.64M1180.6 476.211V509.474M1180.6 476.211H1211.64M1180.6 509.474V542.737M1180.6 509.474H1211.64M1180.6 542.737V576M1180.6 542.737H1211.64M1180.6 576H1211.64M1211.64 -56V-22.7368M1211.64 -56H1242.69M1211.64 -22.7368V10.5263M1211.64 -22.7368H1242.69M1211.64 10.5263V43.7895M1211.64 10.5263H1242.69M1211.64 43.7895V77.0526M1211.64 43.7895H1242.69M1211.64 77.0526V110.316M1211.64 77.0526H1242.69M1211.64 110.316V143.579M1211.64 110.316H1242.69M1211.64 143.579V176.842M1211.64 143.579H1242.69M1211.64 176.842V210.105M1211.64 176.842H1242.69M1211.64 210.105V243.368M1211.64 210.105H1242.69M1211.64 243.368V276.632M1211.64 243.368H1242.69M1211.64 276.632V309.895M1211.64 276.632H1242.69M1211.64 309.895V343.158M1211.64 309.895H1242.69M1211.64 343.158V376.421M1211.64 343.158H1242.69M1211.64 376.421V409.684M1211.64 376.421H1242.69M1211.64 409.684V442.947M1211.64 409.684H1242.69M1211.64 442.947V476.211M1211.64 442.947H1242.69M1211.64 476.211V509.474M1211.64 476.211H1242.69M1211.64 509.474V542.737M1211.64 509.474H1242.69M1211.64 542.737V576M1211.64 542.737H1242.69M1211.64 576H1242.69M1242.69 -56V-22.7368M1242.69 -56H1273.74M1242.69 -22.7368V10.5263M1242.69 -22.7368H1273.74M1242.69 10.5263V43.7895M1242.69 10.5263H1273.74M1242.69 43.7895V77.0526M1242.69 43.7895H1273.74M1242.69 77.0526V110.316M1242.69 77.0526H1273.74M1242.69 110.316V143.579M1242.69 110.316H1273.74M1242.69 143.579V176.842M1242.69 143.579H1273.74M1242.69 176.842V210.105M1242.69 176.842H1273.74M1242.69 210.105V243.368M1242.69 210.105H1273.74M1242.69 243.368V276.632M1242.69 243.368H1273.74M1242.69 276.632V309.895M1242.69 276.632H1273.74M1242.69 309.895V343.158M1242.69 309.895H1273.74M1242.69 343.158V376.421M1242.69 343.158H1273.74M1242.69 376.421V409.684M1242.69 376.421H1273.74M1242.69 409.684V442.947M1242.69 409.684H1273.74M1242.69 442.947V476.211M1242.69 442.947H1273.74M1242.69 476.211V509.474M1242.69 476.211H1273.74M1242.69 509.474V542.737M1242.69 509.474H1273.74M1242.69 542.737V576M1242.69 542.737H1273.74M1242.69 576H1273.74M1273.74 -56V-22.7368M1273.74 -56H1304.78M1273.74 -22.7368V10.5263M1273.74 -22.7368H1304.78M1273.74 10.5263V43.7895M1273.74 10.5263H1304.78M1273.74 43.7895V77.0526M1273.74 43.7895H1304.78M1273.74 77.0526V110.316M1273.74 77.0526H1304.78M1273.74 110.316V143.579M1273.74 110.316H1304.78M1273.74 143.579V176.842M1273.74 143.579H1304.78M1273.74 176.842V210.105M1273.74 176.842H1304.78M1273.74 210.105V243.368M1273.74 210.105H1304.78M1273.74 243.368V276.632M1273.74 243.368H1304.78M1273.74 276.632V309.895M1273.74 276.632H1304.78M1273.74 309.895V343.158M1273.74 309.895H1304.78M1273.74 343.158V376.421M1273.74 343.158H1304.78M1273.74 376.421V409.684M1273.74 376.421H1304.78M1273.74 409.684V442.947M1273.74 409.684H1304.78M1273.74 442.947V476.211M1273.74 442.947H1304.78M1273.74 476.211V509.474M1273.74 476.211H1304.78M1273.74 509.474V542.737M1273.74 509.474H1304.78M1273.74 542.737V576M1273.74 542.737H1304.78M1273.74 576H1304.78M1304.78 -56V-22.7368M1304.78 -56H1335.83M1304.78 -22.7368V10.5263M1304.78 -22.7368H1335.83M1304.78 10.5263V43.7895M1304.78 10.5263H1335.83M1304.78 43.7895V77.0526M1304.78 43.7895H1335.83M1304.78 77.0526V110.316M1304.78 77.0526H1335.83M1304.78 110.316V143.579M1304.78 110.316H1335.83M1304.78 143.579V176.842M1304.78 143.579H1335.83M1304.78 176.842V210.105M1304.78 176.842H1335.83M1304.78 210.105V243.368M1304.78 210.105H1335.83M1304.78 243.368V276.632M1304.78 243.368H1335.83M1304.78 276.632V309.895M1304.78 276.632H1335.83M1304.78 309.895V343.158M1304.78 309.895H1335.83M1304.78 343.158V376.421M1304.78 343.158H1335.83M1304.78 376.421V409.684M1304.78 376.421H1335.83M1304.78 409.684V442.947M1304.78 409.684H1335.83M1304.78 442.947V476.211M1304.78 442.947H1335.83M1304.78 476.211V509.474M1304.78 476.211H1335.83M1304.78 509.474V542.737M1304.78 509.474H1335.83M1304.78 542.737V576M1304.78 542.737H1335.83M1304.78 576H1335.83M1335.83 -56V-22.7368M1335.83 -56H1366.87V-22.7368M1335.83 -22.7368V10.5263M1335.83 -22.7368H1366.87M1335.83 10.5263V43.7895M1335.83 10.5263H1366.87M1335.83 43.7895V77.0526M1335.83 43.7895H1366.87M1335.83 77.0526V110.316M1335.83 77.0526H1366.87M1335.83 110.316V143.579M1335.83 110.316H1366.87M1335.83 143.579V176.842M1335.83 143.579H1366.87M1335.83 176.842V210.105M1335.83 176.842H1366.87M1335.83 210.105V243.368M1335.83 210.105H1366.87M1335.83 243.368V276.632M1335.83 243.368H1366.87M1335.83 276.632V309.895M1335.83 276.632H1366.87M1335.83 309.895V343.158M1335.83 309.895H1366.87M1335.83 343.158V376.421M1335.83 343.158H1366.87M1335.83 376.421V409.684M1335.83 376.421H1366.87M1335.83 409.684V442.947M1335.83 409.684H1366.87M1335.83 442.947V476.211M1335.83 442.947H1366.87M1335.83 476.211V509.474M1335.83 476.211H1366.87M1335.83 509.474V542.737M1335.83 509.474H1366.87M1335.83 542.737V576M1335.83 542.737H1366.87M1335.83 576H1366.87V542.737M1366.87 -22.7368V10.5263M1366.87 10.5263V43.7895M1366.87 43.7895V77.0526M1366.87 77.0526V110.316M1366.87 110.316V143.579M1366.87 143.579V176.842M1366.87 176.842V210.105M1366.87 210.105V243.368M1366.87 243.368V276.632M1366.87 276.632V309.895M1366.87 309.895V343.158M1366.87 343.158V376.421M1366.87 376.421V409.684M1366.87 409.684V442.947M1366.87 442.947V476.211M1366.87 476.211V509.474M1366.87 509.474V542.737" stroke="url(#paint0_radial_1666_28289)" stroke-opacity="0.6" stroke-width="1.74474"/>
<defs>
<radialGradient id="paint0_radial_1666_28289" cx="0" cy="0" r="1" gradientUnits="userSpaceOnUse" gradientTransform="translate(683.872 260) rotate(90) scale(316 551.534)">
<stop stop-color="white"/>
<stop offset="1" stop-color="#0E121B"/>
</radialGradient>
</defs>
</svg>
