<svg width="28" height="28" viewBox="0 0 28 28" fill="none" xmlns="http://www.w3.org/2000/svg">
<path d="M21.3469 11.9H22.3969C22.6754 11.9 22.9424 12.0106 23.1393 12.2075C23.3363 12.4045 23.4469 12.6715 23.4469 12.95V23.45C23.4469 23.7285 23.3363 23.9955 23.1393 24.1925C22.9424 24.3894 22.6754 24.5 22.3969 24.5H5.59688C5.3184 24.5 5.05133 24.3894 4.85441 24.1925C4.6575 23.9955 4.54688 23.7285 4.54688 23.45V12.95C4.54688 12.6715 4.6575 12.4045 4.85441 12.2075C5.05133 12.0106 5.3184 11.9 5.59688 11.9H6.64688V10.85C6.64688 9.88478 6.83699 8.92902 7.20636 8.03728C7.57573 7.14553 8.11713 6.33528 8.79964 5.65277C9.48215 4.97025 10.2924 4.42886 11.1842 4.05949C12.0759 3.69011 13.0317 3.5 13.9969 3.5C14.9621 3.5 15.9179 3.69011 16.8096 4.05949C17.7013 4.42886 18.5116 4.97025 19.1941 5.65277C19.8766 6.33528 20.418 7.14553 20.7874 8.03728C21.1568 8.92902 21.3469 9.88478 21.3469 10.85V11.9ZM6.64688 14V22.4H21.3469V14H6.64688ZM12.9469 16.1H15.0469V20.3H12.9469V16.1ZM19.2469 11.9V10.85C19.2469 9.45761 18.6938 8.12226 17.7092 7.13769C16.7246 6.15312 15.3893 5.6 13.9969 5.6C12.6045 5.6 11.2691 6.15312 10.2846 7.13769C9.3 8.12226 8.74688 9.45761 8.74688 10.85V11.9H19.2469Z" fill="#335CFF"/>
</svg>
