<svg width="1440" height="20" viewBox="0 0 1440 20" fill="none" xmlns="http://www.w3.org/2000/svg">
<rect width="1440" height="20" fill="white"/>
<line y1="9.5" x2="686" y2="9.5" stroke="#EBEBEB"/>
<path d="M720 6.66667L717.167 5V1.66667L720 0L722.833 1.66667V5L720 6.66667Z" fill="#D1D1D1"/>
<path d="M725.667 10L722.833 8.33333V5L725.667 3.33333L728.5 5V8.33333L725.667 10Z" fill="#D1D1D1"/>
<path d="M722.833 15V11.6667L725.667 10L728.5 11.6667V15L725.667 16.6667L722.833 15Z" fill="#D1D1D1"/>
<path d="M717.167 15L720 13.3333L722.833 15V18.3333L720 20L717.167 18.3333V15Z" fill="#D1D1D1"/>
<path d="M714.333 10L717.167 11.6667V15L714.333 16.6667L711.5 15V11.6667L714.333 10Z" fill="#D1D1D1"/>
<path d="M714.333 10L717.167 8.33333V5L714.333 3.33333L711.5 5V8.33333L714.333 10Z" fill="#D1D1D1"/>
<line x1="754" y1="9.5" x2="1440" y2="9.5" stroke="#EBEBEB"/>
</svg>
