<svg width="28" height="28" viewBox="0 0 28 28" fill="none" xmlns="http://www.w3.org/2000/svg">
<path d="M6.6498 15.05C6.6498 9.7076 9.69795 5.1422 13.9998 3.3089C18.3016 5.1422 21.3498 9.7076 21.3498 15.05C21.3498 15.9141 21.27 16.7573 21.1188 17.5731L23.1558 19.4968C23.24 19.5765 23.2955 19.6818 23.3135 19.7963C23.3316 19.9109 23.3112 20.0282 23.2555 20.1299L20.6358 24.9336C20.5967 25.0054 20.5415 25.067 20.4744 25.1136C20.4073 25.1602 20.3303 25.1905 20.2495 25.2022C20.1686 25.2138 20.0862 25.2064 20.0087 25.1806C19.9312 25.1547 19.8608 25.1112 19.8031 25.0534L17.4574 22.7076C17.2606 22.5107 16.9936 22.4001 16.7151 22.4H11.2845C11.006 22.4001 10.739 22.5107 10.5421 22.7076L8.19645 25.0534C8.13875 25.1112 8.06837 25.1547 7.99089 25.1806C7.91341 25.2064 7.83097 25.2138 7.75012 25.2022C7.66928 25.1905 7.59226 25.1602 7.5252 25.1136C7.45813 25.067 7.40287 25.0054 7.3638 24.9336L4.74405 20.1299C4.68842 20.0282 4.66804 19.9109 4.68608 19.7963C4.70413 19.6818 4.75959 19.5765 4.8438 19.4968L6.8808 17.5731C6.73065 16.7573 6.6498 15.9141 6.6498 15.05ZM8.1996 22.0808L9.05745 21.2229C9.64805 20.6322 10.4491 20.3002 11.2845 20.3H16.7151C17.5505 20.3002 18.3515 20.6322 18.9421 21.2229L19.8 22.0808L20.8311 20.1908L19.6761 19.0988C19.4208 18.8577 19.2301 18.5565 19.1213 18.2226C19.0125 17.8888 18.9892 17.533 19.0534 17.1878C19.1836 16.4906 19.2498 15.7755 19.2498 15.05C19.2498 10.9865 17.155 7.385 13.9998 5.642C10.8445 7.385 8.7498 10.9865 8.7498 15.05C8.7498 15.7755 8.81595 16.4906 8.94615 17.1888C9.01039 17.534 8.98706 17.8898 8.87829 18.2237C8.76951 18.5575 8.57877 18.8588 8.3235 19.0999L7.1685 20.1908L8.1996 22.0808V22.0808ZM13.9998 15.05C13.4428 15.05 12.9087 14.8288 12.5149 14.4349C12.121 14.0411 11.8998 13.507 11.8998 12.95C11.8998 12.393 12.121 11.8589 12.5149 11.4651C12.9087 11.0712 13.4428 10.85 13.9998 10.85C14.5568 10.85 15.0909 11.0712 15.4847 11.4651C15.8785 11.8589 16.0998 12.393 16.0998 12.95C16.0998 13.507 15.8785 14.0411 15.4847 14.4349C15.0909 14.8288 14.5568 15.05 13.9998 15.05Z" fill="#7D52F4"/>
</svg>
