<svg width="16" height="16" viewBox="0 0 16 16" fill="none" xmlns="http://www.w3.org/2000/svg">
<path d="M3.07136 2.49562L8.00156 1.40002L12.9318 2.49562C13.065 2.52524 13.1842 2.5994 13.2696 2.70587C13.355 2.81233 13.4015 2.94473 13.4016 3.08122V9.07342C13.4015 9.66606 13.2552 10.2495 12.9755 10.772C12.6958 11.2945 12.2915 11.7399 11.7984 12.0686L8.00156 14.6L4.20476 12.0686C3.71173 11.74 3.30744 11.2947 3.02777 10.7723C2.7481 10.2499 2.6017 9.66656 2.60156 9.07402V3.08122C2.60159 2.94473 2.64815 2.81233 2.73356 2.70587C2.81897 2.5994 2.93812 2.52524 3.07136 2.49562V2.49562ZM8.00156 8.90002L9.76496 9.82702L9.42836 7.86382L10.8546 6.47302L8.88296 6.18622L8.00156 4.40002L7.11956 6.18622L5.14856 6.47302L6.57476 7.86382L6.23876 9.82702L8.00156 8.90002Z" fill="#A4A4A4"/>
</svg>
