<svg width="28" height="28" viewBox="0 0 28 28" fill="none" xmlns="http://www.w3.org/2000/svg">
<path d="M5.36903 4.36731L13.9969 2.45001L22.6247 4.36731C22.8579 4.41914 23.0664 4.54893 23.2159 4.73524C23.3654 4.92155 23.4468 5.15325 23.4469 5.39211V15.8785C23.4468 16.9156 23.1907 17.9366 22.7013 18.851C22.2118 19.7654 21.5042 20.5448 20.6413 21.1201L13.9969 25.55L7.35248 21.1201C6.48966 20.5449 5.78216 19.7657 5.29274 18.8515C4.80332 17.9373 4.54712 16.9165 4.54688 15.8795V5.39211C4.54692 5.15325 4.62839 4.92155 4.77786 4.73524C4.92733 4.54893 5.13586 4.41914 5.36903 4.36731ZM6.64688 6.23421V15.8785C6.64689 16.5698 6.81758 17.2505 7.1438 17.8601C7.47002 18.4697 7.94168 18.9893 8.51693 19.3729L13.9969 23.0269L19.4768 19.3729C20.0519 18.9894 20.5235 18.47 20.8497 17.8606C21.1759 17.2512 21.3467 16.5707 21.3469 15.8795V6.23421L13.9969 4.60251L6.64688 6.23421ZM13.9969 12.95C13.3007 12.95 12.633 12.6735 12.1407 12.1812C11.6484 11.6889 11.3719 11.0212 11.3719 10.325C11.3719 9.62882 11.6484 8.96114 12.1407 8.46886C12.633 7.97657 13.3007 7.70001 13.9969 7.70001C14.6931 7.70001 15.3607 7.97657 15.853 8.46886C16.3453 8.96114 16.6219 9.62882 16.6219 10.325C16.6219 11.0212 16.3453 11.6889 15.853 12.1812C15.3607 12.6735 14.6931 12.95 13.9969 12.95ZM9.30023 18.2C9.42751 17.0433 9.97714 15.9743 10.8438 15.1978C11.7105 14.4212 12.8332 13.9918 13.9969 13.9918C15.1605 13.9918 16.2833 14.4212 17.1499 15.1978C18.0166 15.9743 18.5662 17.0433 18.6935 18.2H9.30023Z" fill="#FB4BA3"/>
</svg>
