<svg width="22" height="22" viewBox="0 0 22 22" fill="none" xmlns="http://www.w3.org/2000/svg">
<path d="M9.12844 7.88324L7.25844 4.76657L9.12844 1.6499H12.8684L14.7384 4.76657H10.9984L9.12844 7.88324Z" fill="#99A0AE"/>
<path d="M18.4784 10.9999L16.6084 7.88324H12.8684L14.7384 4.76657H18.4784L20.3484 7.88324L18.4784 10.9999Z" fill="#99A0AE"/>
<path d="M14.7384 17.2332H18.4784L20.3484 14.1166L18.4784 10.9999H14.7384L16.6084 14.1166L14.7384 17.2332Z" fill="#99A0AE"/>
<path d="M7.25844 17.2332H10.9984L12.8684 14.1166L14.7384 17.2332L12.8684 20.3499H9.12844L7.25844 17.2332Z" fill="#99A0AE"/>
<path d="M3.51844 10.9999H7.25844L5.38844 7.88324L7.25844 4.76657H3.51844L1.64844 7.88324L3.51844 10.9999Z" fill="#99A0AE"/>
<path d="M3.51844 10.9999L1.64844 14.1166L3.51844 17.2332H7.25844L9.12844 14.1166H5.38844L3.51844 10.9999Z" fill="#99A0AE"/>
</svg>
