<svg width="16" height="16" viewBox="0 0 16 16" fill="none" xmlns="http://www.w3.org/2000/svg">
<path d="M3.67593 11.2664C3.63099 11.2981 3.57822 11.3168 3.52337 11.3205C3.46852 11.3242 3.41371 11.3128 3.36492 11.2874C3.31613 11.2621 3.27524 11.2239 3.2467 11.1769C3.21817 11.1299 3.20309 11.076 3.20313 11.021V4.979C3.20309 4.92403 3.21817 4.8701 3.2467 4.82312C3.27524 4.77613 3.31613 4.73789 3.36492 4.71256C3.41371 4.68724 3.46852 4.67581 3.52337 4.67952C3.57822 4.68323 3.63099 4.70193 3.67593 4.7336L7.95572 7.7552C7.99485 7.78292 8.02677 7.81961 8.04879 7.8622C8.07082 7.9048 8.08231 7.95205 8.08231 8C8.08231 8.04795 8.07082 8.0952 8.04879 8.13779C8.02677 8.18039 7.99485 8.21708 7.95572 8.2448L3.67593 11.2664V11.2664ZM8.60312 4.979C8.60309 4.92403 8.61817 4.8701 8.6467 4.82312C8.67524 4.77613 8.71613 4.73789 8.76492 4.71256C8.81371 4.68724 8.86852 4.67581 8.92337 4.67952C8.97822 4.68323 9.03099 4.70193 9.07592 4.7336L13.3557 7.7552C13.3949 7.78292 13.4268 7.81961 13.4488 7.8622C13.4708 7.9048 13.4823 7.95205 13.4823 8C13.4823 8.04795 13.4708 8.0952 13.4488 8.13779C13.4268 8.18039 13.3949 8.21708 13.3557 8.2448L9.07592 11.2664C9.03099 11.2981 8.97822 11.3168 8.92337 11.3205C8.86852 11.3242 8.81371 11.3128 8.76492 11.2874C8.71613 11.2621 8.67524 11.2239 8.6467 11.1769C8.61817 11.1299 8.60309 11.076 8.60312 11.021V4.979Z" fill="#A4A4A4"/>
</svg>
